Description

Poster: http://cdn.piczend.com/image/0srvml9yguqb31vqdmlgmsfuu.jpeg
Release date: 2013
Genre: Comedy, Horror
Plot: Malcolm and Kisha move into their dream home, but soon learn a demon also resides there. When Kisha becomes possessed, Malcolm - determined to keep his sex life on track - turns to a priest, a psychic, and a team of ghost-busters for help.
--------------------------------
Runtime: 1 h 26 min
Rating: 5.0/10
Votes: 4,179
Writer(s)/Director(s): Marlon Wayans, Rick Alvarez/Michael Tiddes
Actors: Marlon Wayans, Essence Atkins, Marlene Forte, David Koechner
Trailer: http://www.imdb.com/video/imdb/vi3104810009/

Screenshots: 
http://cdn.piczend.com/image/kzyuxzcjno0agj2kl2vtv8oj7.jpeg 
http://cdn.piczend.com/image/mmacacdz0ynqbwepnewww77ot.jpeg 
http://cdn.piczend.com/image/qar5jpivflvhol8dypektkyo7.jpeg 
http://cdn.piczend.com/image/ul5r0o80w4abdwgoiotjnw8c1.jpeg

Mediainfo:
General
Complete name :	A Haunted House (2013) DVDRip 384p [Zend]/A Haunted House (2013) DVDRip 384p [Zend].mp4
Format :	MPEG-4
Format profile :	Base Media
Codec ID :	isom
File size :	1.17 GiB
Duration :	1h 26mn
Overall bit rate :	1 939 Kbps
Writing application :	Lavf53.21.1

Video
ID :	1
Format :	AVC
Format/Info :	Advanced Video Codec
Format profile :	Main@L3.0
Format settings, CABAC :	Yes
Format settings, ReFrames :	3 frames
Codec ID :	avc1
Codec ID/Info :	Advanced Video Coding
Duration :	1h 26mn
Bit rate :	1 500 Kbps
Width :	720 pixels
Height :	384 pixels
Display aspect ratio :	1.85:1
Frame rate mode :	Constant
Frame rate :	23.976 fps
Color space :	YUV
Chroma subsampling :	4:2:0
Bit depth :	8 bits
Scan type :	Progressive
Bits/(Pixel*Frame) :	0.226
Stream size :	920 MiB (77%)
Writing library :	x264 core 123 r2189 35cf912
Encoding settings :	cabac=1 / ref=3 / deblock=1:0:0 / analyse=0x1:0x111 / me=hex / subme=7 / psy=1 / psy_rd=1.00:0.00 / mixed_ref=0 / me_range=16 / chroma_me=1 / trellis=1 / 8x8dct=0 / cqm=0 / deadzone=21,11 / fast_pskip=1 / chroma_qp_offset=-2 / threads=6 / sliced_threads=0 / nr=0 / decimate=1 / interlaced=0 / bluray_compat=0 / constrained_intra=0 / bframes=3 / b_pyramid=0 / b_adapt=1 / b_bias=0 / direct=1 / weightb=0 / open_gop=1 / weightp=2 / keyint=250 / keyint_min=23 / scenecut=40 / intra_refresh=0 / rc_lookahead=40 / rc=abr / mbtree=1 / bitrate=1500 / ratetol=1.0 / qcomp=0.60 / qpmin=0 / qpmax=69 / qpstep=4 / ip_ratio=1.25 / aq=1:1.00

Audio
ID :	2
Format :	AC-3
Format/Info :	Audio Coding 3
Mode extension :	CM (complete main)
Format settings, Endianness :	Big
Codec ID :	ac-3
Duration :	1h 26mn
Bit rate mode :	Constant
Bit rate :	448 Kbps
Channel(s) :	6 channels
Channel positions :	Front: L C R, Side: L R, LFE
Sampling rate :	48.0 KHz
Bit depth :	16 bits
Compression mode :	Lossy
Delay relative to video :	42ms
Stream size :	277 MiB (23%)
